<svg version="1.1" viewBox="0.0 0.0 960.0 720.0" fill="none" stroke="none" stroke-linecap="square" stroke-miterlimit="10" xmlns:xlink="http://www.w3.org/1999/xlink" xmlns="http://www.w3.org/2000/svg"><clipPath id="p.0"><path d="m0 0l960.0 0l0 720.0l-960.0 0l0 -720.0z" clip-rule="nonzero"/></clipPath><g clip-path="url(#p.0)"><path fill="#000000" fill-opacity="0.0" d="m0 0l960.0 0l0 720.0l-960.0 0z" fill-rule="evenodd"/><path fill="#20232a" d="m179.49344 74.11286l591.74805 0l0 585.95276l-591.74805 0z" fill-rule="evenodd"/><path stroke="#000000" stroke-width="1.0" stroke-linejoin="round" stroke-linecap="butt" d="m179.49344 74.11286l591.74805 0l0 585.95276l-591.74805 0z" fill-rule="evenodd"/><path fill="#bbc3c6" d="m431.937 168.56693l54.4252 0l0 54.4252l-54.4252 0z" fill-rule="evenodd"/><path stroke="#000000" stroke-width="4.0" stroke-linejoin="round" stroke-linecap="butt" d="m431.937 168.56693l54.4252 0l0 54.4252l-54.4252 0z" fill-rule="evenodd"/><path fill="#bbc3c6" d="m406.37796 137.10516l0 0c0 -5.009796 4.061249 -9.071045 9.071045 -9.071045l87.33823 0c2.4057922 0 4.713043 0.95570374 6.4141846 2.656845c1.7011414 1.7011566 2.6568604 4.0084076 2.6568604 6.4142l0 36.28311c0 5.009796 -4.061249 9.071045 -9.071045 9.071045l-87.33823 0c-5.009796 0 -9.071045 -4.061249 -9.071045 -9.071045z" fill-rule="evenodd"/><path stroke="#000000" stroke-width="4.0" stroke-linejoin="round" stroke-linecap="butt" d="m406.37796 137.10516l0 0c0 -5.009796 4.061249 -9.071045 9.071045 -9.071045l87.33823 0c2.4057922 0 4.713043 0.95570374 6.4141846 2.656845c1.7011414 1.7011566 2.6568604 4.0084076 2.6568604 6.4142l0 36.28311c0 5.009796 -4.061249 9.071045 -9.071045 9.071045l-87.33823 0c-5.009796 0 -9.071045 -4.061249 -9.071045 -9.071045z" fill-rule="evenodd"/><path fill="#bbc3c6" d="m586.6374 207.84451l0 0c3.2789917 -3.7863464 9.006592 -4.197632 12.792908 -0.9186554l27.422302 23.747803l0 0c1.8182373 1.5746155 2.9365234 3.8070526 3.1088257 6.206192c0.17230225 2.3991241 -0.61553955 4.768448 -2.1901855 6.5867004l-32.09424 37.06012c-3.2789917 3.786316 -9.006592 4.197632 -12.792908 0.91864014l-27.422302 -23.747803c-3.786316 -3.2789764 -4.197632 -9.006561 -0.91864014 -12.792892z" fill-rule="evenodd"/><path stroke="#000000" stroke-width="4.0" stroke-linejoin="round" stroke-linecap="butt" d="m586.6374 207.84451l0 0c3.2789917 -3.7863464 9.006592 -4.197632 12.792908 -0.9186554l27.422302 23.747803l0 0c1.8182373 1.5746155 2.9365234 3.8070526 3.1088257 6.206192c0.17230225 2.3991241 -0.61553955 4.768448 -2.1901855 6.5867004l-32.09424 37.06012c-3.2789917 3.786316 -9.006592 4.197632 -12.792908 0.91864014l-27.422302 -23.747803c-3.786316 -3.2789764 -4.197632 -9.006561 -0.91864014 -12.792892z" fill-rule="evenodd"/><path fill="#bbc3c6" d="m593.87024 168.82477l0 0c3.0325928 -3.9863892 8.723206 -4.7604675 12.710388 -1.7289581l58.096558 44.17154c1.9147339 1.45578 3.1724854 3.6124115 3.496643 5.9954376c0.3241577 2.3830261 -0.3118286 4.7972565 -1.7681274 6.7115936l-21.963013 28.871094c-3.0325928 3.9864044 -8.723206 4.760483 -12.710388 1.7289734l-58.096558 -44.171555c-3.9871826 -3.0315094 -4.7610474 -8.720642 -1.7285156 -12.707016z" fill-rule="evenodd"/><path stroke="#000000" stroke-width="4.0" stroke-linejoin="round" stroke-linecap="butt" d="m593.87024 168.82477l0 0c3.0325928 -3.9863892 8.723206 -4.7604675 12.710388 -1.7289581l58.096558 44.17154c1.9147339 1.45578 3.1724854 3.6124115 3.496643 5.9954376c0.3241577 2.3830261 -0.3118286 4.7972565 -1.7681274 6.7115936l-21.963013 28.871094c-3.0325928 3.9864044 -8.723206 4.760483 -12.710388 1.7289734l-58.096558 -44.171555c-3.9871826 -3.0315094 -4.7610474 -8.720642 -1.7285156 -12.707016z" fill-rule="evenodd"/><path fill="#f4f4ef" d="m270.97638 389.16272l0 0c0 -103.9252 84.24802 -188.17322 188.17322 -188.17322l0 0c49.906647 0 97.769226 19.825333 133.0586 55.114655c35.289307 35.289337 55.114624 83.15192 55.114624 133.05856l0 0c0 103.9252 -84.247986 188.17322 -188.17322 188.17322l0 0c-103.9252 0 -188.17322 -84.24802 -188.17322 -188.17322z" fill-rule="evenodd"/><path stroke="#bbc3c6" stroke-width="16.0" stroke-linejoin="round" stroke-linecap="butt" d="m270.97638 389.16272l0 0c0 -103.9252 84.24802 -188.17322 188.17322 -188.17322l0 0c49.906647 0 97.769226 19.825333 133.0586 55.114655c35.289307 35.289337 55.114624 83.15192 55.114624 133.05856l0 0c0 103.9252 -84.247986 188.17322 -188.17322 188.17322l0 0c-103.9252 0 -188.17322 -84.24802 -188.17322 -188.17322z" fill-rule="evenodd"/><path fill="#acbebe" d="m514.42487 561.8124l0 0c-58.819183 18.710999 -123.14502 6.3881836 -170.81598 -32.72296c-47.67099 -39.111115 -72.17142 -99.664856 -65.060425 -160.79926l180.60114 20.872559z" fill-rule="evenodd"/><path stroke="#000000" stroke-width="4.0" stroke-linejoin="round" stroke-linecap="butt" d="m514.42487 561.8124l0 0c-58.819183 18.710999 -123.14502 6.3881836 -170.81598 -32.72296c-47.67099 -39.111115 -72.17142 -99.664856 -65.060425 -160.79926l180.60114 20.872559z" fill-rule="evenodd"/><path fill="#aa0011" d="m458.1059 208.84247l0 0c89.110535 0.15379333 165.05585 65.043945 179.27808 153.18097c14.222168 88.13699 -37.480774 173.48065 -122.051025 201.4638l-57.23059 -172.73697z" fill-rule="evenodd"/><path stroke="#000000" stroke-width="4.0" stroke-linejoin="round" stroke-linecap="butt" d="m458.1059 208.84247l0 0c89.110535 0.15379333 165.05585 65.043945 179.27808 153.18097c14.222168 88.13699 -37.480774 173.48065 -122.051025 201.4638l-57.23059 -172.73697z" fill-rule="evenodd"/><path fill="#000000" d="m466.43225 367.4236l105.59924 -95.07654l-83.194214 115.19321z" fill-rule="evenodd"/><path stroke="#000000" stroke-width="4.0" stroke-linejoin="round" stroke-linecap="butt" d="m466.43225 367.4236l105.59924 -95.07654l-83.194214 115.19321z" fill-rule="evenodd"/><path fill="#000000" d="m445.40567 372.64423l0 0c10.040924 -11.183136 27.24646 -12.1091 38.429626 -2.0681458l0 0c5.370331 4.8218384 8.605255 11.579529 8.993103 18.786499c0.38787842 7.2069397 -2.103119 14.272797 -6.9249573 19.643127l0 0c-10.040924 11.1831665 -27.24646 12.1091 -38.429626 2.0681763l0 0c-11.183136 -10.040955 -12.1091 -27.24649 -2.0681458 -38.429657z" fill-rule="evenodd"/><path stroke="#000000" stroke-width="4.0" stroke-linejoin="round" stroke-linecap="butt" d="m445.40567 372.64423l0 0c10.040924 -11.183136 27.24646 -12.1091 38.429626 -2.0681458l0 0c5.370331 4.8218384 8.605255 11.579529 8.993103 18.786499c0.38787842 7.2069397 -2.103119 14.272797 -6.9249573 19.643127l0 0c-10.040924 11.1831665 -27.24646 12.1091 -38.429626 2.0681763l0 0c-11.183136 -10.040955 -12.1091 -27.24649 -2.0681458 -38.429657z" fill-rule="evenodd"/></g></svg>